<svg xmlns="http://www.w3.org/2000/svg" xmlns:xlink="http://www.w3.org/1999/xlink" width="1243pt" height="773pt" viewBox="0.00 0.00 1243.00 773.00">
<g id="graph0" class="graph" transform="scale(1 1) rotate(0) translate(4 768.63)">
<title>DersKayitGenişletilmis</title>
<polygon fill="white" stroke="none" points="-4,4 -4,-768.63 1238.59,-768.63 1238.59,4 -4,4"/>
<!-- Start -->
<g id="node1" class="node">
<title>Start</title>
<path fill="none" stroke="black" d="M517.96,-764.63C517.96,-764.63 426.04,-764.63 426.04,-764.63 420.04,-764.63 414.04,-758.63 414.04,-752.63 414.04,-752.63 414.04,-740.63 414.04,-740.63 414.04,-734.63 420.04,-728.63 426.04,-728.63 426.04,-728.63 517.96,-728.63 517.96,-728.63 523.96,-728.63 529.96,-734.63 529.96,-740.63 529.96,-740.63 529.96,-752.63 529.96,-752.63 529.96,-758.63 523.96,-764.63 517.96,-764.63"/>
<text xml:space="preserve" text-anchor="middle" x="472" y="-742.43" font-family="Times,serif" font-size="14.00">Başla / Giriş Yap</text>
</g>
<!-- Menu -->
<g id="node2" class="node">
<title>Menu</title>
<path fill="none" stroke="black" d="M559.38,-691.63C559.38,-691.63 384.62,-691.63 384.62,-691.63 378.62,-691.63 372.62,-685.63 372.62,-679.63 372.62,-679.63 372.62,-662.03 372.62,-662.03 372.62,-656.03 378.62,-650.03 384.62,-650.03 384.62,-650.03 559.38,-650.03 559.38,-650.03 565.38,-650.03 571.38,-656.03 571.38,-662.03 571.38,-662.03 571.38,-679.63 571.38,-679.63 571.38,-685.63 565.38,-691.63 559.38,-691.63"/>
<text xml:space="preserve" text-anchor="middle" x="472" y="-675.03" font-family="Times,serif" font-size="14.00">İşlem Menüsü</text>
<text xml:space="preserve" text-anchor="middle" x="472" y="-658.23" font-family="Times,serif" font-size="14.00">(EKLE / SİL / LİSTE / BİTİR)</text>
</g>
<!-- Start&#45;&gt;Menu -->
<g id="edge1" class="edge">
<title>Start-&gt;Menu</title>
<path fill="none" stroke="black" d="M472,-728.14C472,-720.78 472,-711.98 472,-703.55"/>
<polygon fill="black" stroke="black" points="475.5,-703.58 472,-693.58 468.5,-703.58 475.5,-703.58"/>
</g>
<!-- Ekle -->
<g id="node3" class="node">
<title>Ekle</title>
<path fill="none" stroke="black" d="M321.07,-597.23C321.07,-597.23 250.93,-597.23 250.93,-597.23 244.93,-597.23 238.93,-591.23 238.93,-585.23 238.93,-585.23 238.93,-573.23 238.93,-573.23 238.93,-567.23 244.93,-561.23 250.93,-561.23 250.93,-561.23 321.07,-561.23 321.07,-561.23 327.07,-561.23 333.07,-567.23 333.07,-573.23 333.07,-573.23 333.07,-585.23 333.07,-585.23 333.07,-591.23 327.07,-597.23 321.07,-597.23"/>
<text xml:space="preserve" text-anchor="middle" x="286" y="-575.03" font-family="Times,serif" font-size="14.00">EKLE İşlemi</text>
</g>
<!-- Menu&#45;&gt;Ekle -->
<g id="edge2" class="edge">
<title>Menu-&gt;Ekle</title>
<path fill="none" stroke="black" d="M372.25,-656.22C353.87,-650.69 335.64,-642.93 320.23,-632.03 311.41,-625.79 304.25,-616.49 298.8,-607.49"/>
<polygon fill="black" stroke="black" points="301.99,-606.03 294.1,-598.95 295.85,-609.4 301.99,-606.03"/>
<text xml:space="preserve" text-anchor="middle" x="338.12" y="-619.43" font-family="Times,serif" font-size="14.00">EKLE</text>
</g>
<!-- Sil -->
<g id="node12" class="node">
<title>Sil</title>
<path fill="none" stroke="black" d="M603.86,-597.23C603.86,-597.23 546.14,-597.23 546.14,-597.23 540.14,-597.23 534.14,-591.23 534.14,-585.23 534.14,-585.23 534.14,-573.23 534.14,-573.23 534.14,-567.23 540.14,-561.23 546.14,-561.23 546.14,-561.23 603.86,-561.23 603.86,-561.23 609.86,-561.23 615.86,-567.23 615.86,-573.23 615.86,-573.23 615.86,-585.23 615.86,-585.23 615.86,-591.23 609.86,-597.23 603.86,-597.23"/>
<text xml:space="preserve" text-anchor="middle" x="575" y="-575.03" font-family="Times,serif" font-size="14.00">SİL İşlemi</text>
</g>
<!-- Menu&#45;&gt;Sil -->
<g id="edge3" class="edge">
<title>Menu-&gt;Sil</title>
<path fill="none" stroke="black" d="M495.33,-649.87C502.02,-644.12 509.31,-637.84 516,-632.03 526.09,-623.27 537.1,-613.63 546.84,-605.06"/>
<polygon fill="black" stroke="black" points="549.05,-607.78 554.24,-598.55 544.42,-602.53 549.05,-607.78"/>
<text xml:space="preserve" text-anchor="middle" x="545.56" y="-619.43" font-family="Times,serif" font-size="14.00">SİL</text>
</g>
<!-- Liste -->
<g id="node15" class="node">
<title>Liste</title>
<path fill="none" stroke="black" d="M786.41,-597.23C786.41,-597.23 711.59,-597.23 711.59,-597.23 705.59,-597.23 699.59,-591.23 699.59,-585.23 699.59,-585.23 699.59,-573.23 699.59,-573.23 699.59,-567.23 705.59,-561.23 711.59,-561.23 711.59,-561.23 786.41,-561.23 786.41,-561.23 792.41,-561.23 798.41,-567.23 798.41,-573.23 798.41,-573.23 798.41,-585.23 798.41,-585.23 798.41,-591.23 792.41,-597.23 786.41,-597.23"/>
<text xml:space="preserve" text-anchor="middle" x="749" y="-575.03" font-family="Times,serif" font-size="14.00">LİSTE İşlemi</text>
</g>
<!-- Menu&#45;&gt;Liste -->
<g id="edge4" class="edge">
<title>Menu-&gt;Liste</title>
<path fill="none" stroke="black" d="M571.85,-662.92C608.96,-657.62 650.62,-648.32 686,-632.03 700.11,-625.54 713.69,-615.1 724.61,-605.29"/>
<polygon fill="black" stroke="black" points="726.75,-608.07 731.65,-598.68 721.96,-602.97 726.75,-608.07"/>
<text xml:space="preserve" text-anchor="middle" x="732.61" y="-619.43" font-family="Times,serif" font-size="14.00">LİSTE</text>
</g>
<!-- Bitir -->
<g id="node17" class="node">
<title>Bitir</title>
<path fill="none" stroke="black" d="M994.61,-597.23C994.61,-597.23 961.39,-597.23 961.39,-597.23 955.39,-597.23 949.39,-591.23 949.39,-585.23 949.39,-585.23 949.39,-573.23 949.39,-573.23 949.39,-567.23 955.39,-561.23 961.39,-561.23 961.39,-561.23 994.61,-561.23 994.61,-561.23 1000.61,-561.23 1006.61,-567.23 1006.61,-573.23 1006.61,-573.23 1006.61,-585.23 1006.61,-585.23 1006.61,-591.23 1000.61,-597.23 994.61,-597.23"/>
<text xml:space="preserve" text-anchor="middle" x="978" y="-575.03" font-family="Times,serif" font-size="14.00">BİTİR</text>
</g>
<!-- Menu&#45;&gt;Bitir -->
<g id="edge5" class="edge">
<title>Menu-&gt;Bitir</title>
<path fill="none" stroke="black" d="M571.54,-666.51C646.24,-662.37 750.59,-653.03 840,-632.03 874.31,-623.97 911.64,-609.59 938.82,-598.03"/>
<polygon fill="black" stroke="black" points="939.89,-601.37 947.68,-594.19 937.11,-594.95 939.89,-601.37"/>
<text xml:space="preserve" text-anchor="middle" x="914.78" y="-619.43" font-family="Times,serif" font-size="14.00">BİTİR</text>
</g>
<!-- Onkosul -->
<g id="node4" class="node">
<title>Onkosul</title>
<path fill="none" stroke="black" d="M273.11,-506.79C273.11,-506.79 166.74,-492.08 166.74,-492.08 160.8,-491.25 160.8,-489.61 166.74,-488.79 166.74,-488.79 273.11,-474.08 273.11,-474.08 279.06,-473.25 290.94,-473.25 296.89,-474.08 296.89,-474.08 403.26,-488.79 403.26,-488.79 409.2,-489.61 409.2,-491.25 403.26,-492.08 403.26,-492.08 296.89,-506.79 296.89,-506.79 290.94,-507.61 279.06,-507.61 273.11,-506.79"/>
<text xml:space="preserve" text-anchor="middle" x="285" y="-486.23" font-family="Times,serif" font-size="14.00">Önkoşullar Tam mı?</text>
</g>
<!-- Ekle&#45;&gt;Onkosul -->
<g id="edge6" class="edge">
<title>Ekle-&gt;Onkosul</title>
<path fill="none" stroke="black" d="M285.8,-561.08C285.67,-549.39 285.49,-533.62 285.33,-520.05"/>
<polygon fill="black" stroke="black" points="288.83,-520.31 285.22,-510.36 281.83,-520.39 288.83,-520.31"/>
</g>
<!-- Onkosul&#45;&gt;Menu -->
<g id="edge8" class="edge">
<title>Onkosul-&gt;Menu</title>
<path fill="none" stroke="black" d="M298.32,-506.7C316.94,-527.78 352.12,-566.64 384.67,-597.23 401.4,-612.95 420.98,-629.39 437.35,-642.64"/>
<polygon fill="black" stroke="black" points="434.91,-645.17 444.9,-648.71 439.29,-639.72 434.91,-645.17"/>
<text xml:space="preserve" text-anchor="middle" x="406.83" y="-575.03" font-family="Times,serif" font-size="14.00">HAYIR</text>
</g>
<!-- Coreq -->
<g id="node5" class="node">
<title>Coreq</title>
<path fill="none" stroke="black" d="M279.06,-415.66C279.06,-415.66 119.7,-400 119.7,-400 113.73,-399.42 113.73,-398.24 119.7,-397.66 119.7,-397.66 279.06,-382 279.06,-382 285.03,-381.42 296.97,-381.42 302.94,-382 302.94,-382 462.3,-397.66 462.3,-397.66 468.27,-398.24 468.27,-399.42 462.3,-400 462.3,-400 302.94,-415.66 302.94,-415.66 296.97,-416.24 285.03,-416.24 279.06,-415.66"/>
<text xml:space="preserve" text-anchor="middle" x="291" y="-394.63" font-family="Times,serif" font-size="14.00">Eş-zorunlu ders de seçildi mi?</text>
</g>
<!-- Onkosul&#45;&gt;Coreq -->
<g id="edge7" class="edge">
<title>Onkosul-&gt;Coreq</title>
<path fill="none" stroke="black" d="M286.16,-472.16C286.99,-459.76 288.12,-442.77 289.09,-428.38"/>
<polygon fill="black" stroke="black" points="292.57,-428.78 289.75,-418.56 285.59,-428.31 292.57,-428.78"/>
<text xml:space="preserve" text-anchor="middle" x="306.24" y="-441.83" font-family="Times,serif" font-size="14.00">EVET</text>
</g>
<!-- Coreq&#45;&gt;Menu -->
<g id="edge10" class="edge">
<title>Coreq-&gt;Menu</title>
<path fill="none" stroke="black" d="M334.36,-413.05C363.9,-424.25 401.57,-443.22 424,-472.43 429.1,-479.08 453.08,-584.65 465.1,-638.61"/>
<polygon fill="black" stroke="black" points="461.63,-639.11 467.21,-648.11 468.46,-637.59 461.63,-639.11"/>
<text xml:space="preserve" text-anchor="middle" x="465.01" y="-530.63" font-family="Times,serif" font-size="14.00">HAYIR</text>
</g>
<!-- SaatCakis -->
<g id="node6" class="node">
<title>SaatCakis</title>
<path fill="none" stroke="black" d="M236.08,-323.85C236.08,-323.85 104.37,-308.61 104.37,-308.61 98.41,-307.92 98.41,-306.54 104.37,-305.85 104.37,-305.85 236.08,-290.61 236.08,-290.61 242.04,-289.92 253.96,-289.92 259.92,-290.61 259.92,-290.61 391.63,-305.85 391.63,-305.85 397.59,-306.54 397.59,-307.92 391.63,-308.61 391.63,-308.61 259.92,-323.85 259.92,-323.85 253.96,-324.54 242.04,-324.54 236.08,-323.85"/>
<text xml:space="preserve" text-anchor="middle" x="248" y="-303.03" font-family="Times,serif" font-size="14.00">Saat Çakışması Var mı?</text>
</g>
<!-- Coreq&#45;&gt;SaatCakis -->
<g id="edge9" class="edge">
<title>Coreq-&gt;SaatCakis</title>
<path fill="none" stroke="black" d="M283.11,-381.4C276.87,-368.39 268.03,-349.96 260.77,-334.85"/>
<polygon fill="black" stroke="black" points="263.97,-333.43 256.49,-325.93 257.66,-336.46 263.97,-333.43"/>
<text xml:space="preserve" text-anchor="middle" x="289.96" y="-347.43" font-family="Times,serif" font-size="14.00">EVET</text>
</g>
<!-- SaatCakis&#45;&gt;Menu -->
<g id="edge12" class="edge">
<title>SaatCakis-&gt;Menu</title>
<path fill="none" stroke="black" d="M191.23,-319.1C158.21,-328.65 119.23,-346.21 99,-378.03 67.79,-427.12 80.86,-458.22 110.23,-508.43 161.72,-596.44 274.9,-636.64 361.05,-654.89"/>
<polygon fill="black" stroke="black" points="360.23,-658.3 370.73,-656.87 361.63,-651.44 360.23,-658.3"/>
<text xml:space="preserve" text-anchor="middle" x="128.12" y="-486.23" font-family="Times,serif" font-size="14.00">EVET</text>
</g>
<!-- Kontenjan -->
<g id="node7" class="node">
<title>Kontenjan</title>
<path fill="none" stroke="black" d="M236.1,-234.9C236.1,-234.9 119.89,-219.96 119.89,-219.96 113.94,-219.2 113.94,-217.67 119.89,-216.9 119.89,-216.9 236.1,-201.96 236.1,-201.96 242.05,-201.2 253.95,-201.2 259.9,-201.96 259.9,-201.96 376.11,-216.9 376.11,-216.9 382.06,-217.67 382.06,-219.2 376.11,-219.96 376.11,-219.96 259.9,-234.9 259.9,-234.9 253.95,-235.67 242.05,-235.67 236.1,-234.9"/>
<text xml:space="preserve" text-anchor="middle" x="248" y="-214.23" font-family="Times,serif" font-size="14.00">Kontenjan Uygun mu?</text>
</g>
<!-- SaatCakis&#45;&gt;Kontenjan -->
<g id="edge11" class="edge">
<title>SaatCakis-&gt;Kontenjan</title>
<path fill="none" stroke="black" d="M248,-289.08C248,-277.39 248,-261.62 248,-248.05"/>
<polygon fill="black" stroke="black" points="251.5,-248.36 248,-238.36 244.5,-248.36 251.5,-248.36"/>
<text xml:space="preserve" text-anchor="middle" x="270.17" y="-258.63" font-family="Times,serif" font-size="14.00">HAYIR</text>
</g>
<!-- Kredi -->
<g id="node8" class="node">
<title>Kredi</title>
<path fill="none" stroke="black" d="M314.15,-134.35C314.15,-134.35 223.63,-120.08 223.63,-120.08 217.71,-119.15 217.71,-117.28 223.63,-116.35 223.63,-116.35 314.15,-102.08 314.15,-102.08 320.07,-101.15 331.93,-101.15 337.85,-102.08 337.85,-102.08 428.37,-116.35 428.37,-116.35 434.29,-117.28 434.29,-119.15 428.37,-120.08 428.37,-120.08 337.85,-134.35 337.85,-134.35 331.93,-135.28 320.07,-135.28 314.15,-134.35"/>
<text xml:space="preserve" text-anchor="middle" x="326" y="-114.02" font-family="Times,serif" font-size="14.00">Kredi Uygun mu?</text>
</g>
<!-- Kontenjan&#45;&gt;Kredi -->
<g id="edge13" class="edge">
<title>Kontenjan-&gt;Kredi</title>
<path fill="none" stroke="black" d="M260.53,-201.65C273,-185.95 292.3,-161.65 306.72,-143.49"/>
<polygon fill="black" stroke="black" points="309.34,-145.83 312.81,-135.82 303.85,-141.47 309.34,-145.83"/>
<text xml:space="preserve" text-anchor="middle" x="304.88" y="-169.83" font-family="Times,serif" font-size="14.00">EVET</text>
</g>
<!-- Bekleme -->
<g id="node10" class="node">
<title>Bekleme</title>
<ellipse fill="none" stroke="black" cx="111" cy="-118.22" rx="83.07" ry="29.42"/>
<text xml:space="preserve" text-anchor="middle" x="111" y="-122.42" font-family="Times,serif" font-size="14.00">Bekleme Listesi</text>
<text xml:space="preserve" text-anchor="middle" x="111" y="-105.62" font-family="Times,serif" font-size="14.00">(öncelikli kuyruk)</text>
</g>
<!-- Kontenjan&#45;&gt;Bekleme -->
<g id="edge14" class="edge">
<title>Kontenjan-&gt;Bekleme</title>
<path fill="none" stroke="black" d="M227.49,-202.73C208.77,-189.31 180.46,-169.01 156.43,-151.78"/>
<polygon fill="black" stroke="black" points="158.51,-148.97 148.35,-145.99 154.43,-154.66 158.51,-148.97"/>
<text xml:space="preserve" text-anchor="middle" x="217.97" y="-169.83" font-family="Times,serif" font-size="14.00">HAYIR</text>
</g>
<!-- KayitOK -->
<g id="node9" class="node">
<title>KayitOK</title>
<ellipse fill="none" stroke="black" cx="133" cy="-18" rx="72.45" ry="18"/>
<text xml:space="preserve" text-anchor="middle" x="133" y="-13.8" font-family="Times,serif" font-size="14.00">Kayıt Başarılı</text>
</g>
<!-- Kredi&#45;&gt;KayitOK -->
<g id="edge15" class="edge">
<title>Kredi-&gt;KayitOK</title>
<path fill="none" stroke="black" d="M299.97,-103.97C267.62,-87.51 212.03,-59.22 173.94,-39.84"/>
<polygon fill="black" stroke="black" points="175.55,-36.73 165.05,-35.31 172.38,-42.96 175.55,-36.73"/>
<text xml:space="preserve" text-anchor="middle" x="247.38" y="-58.2" font-family="Times,serif" font-size="14.00">EVET</text>
</g>
<!-- KrediFail -->
<g id="node11" class="node">
<title>KrediFail</title>
<ellipse fill="none" stroke="black" cx="443" cy="-18" rx="94.72" ry="18"/>
<text xml:space="preserve" text-anchor="middle" x="443" y="-13.8" font-family="Times,serif" font-size="14.00">Kredi Sınırı Aşıldı</text>
</g>
<!-- Kredi&#45;&gt;KrediFail -->
<g id="edge16" class="edge">
<title>Kredi-&gt;KrediFail</title>
<path fill="none" stroke="black" d="M343.52,-102.51C362.23,-86.8 392.19,-61.65 414.34,-43.05"/>
<polygon fill="black" stroke="black" points="416.44,-45.87 421.85,-36.75 411.94,-40.5 416.44,-45.87"/>
<text xml:space="preserve" text-anchor="middle" x="420.59" y="-58.2" font-family="Times,serif" font-size="14.00">HAYIR</text>
</g>
<!-- KayitOK&#45;&gt;Menu -->
<g id="edge17" class="edge">
<title>KayitOK-&gt;Menu</title>
<path fill="none" stroke="black" d="M86.86,-32.16C48.44,-46.28 0,-72.87 0,-117.22 0,-580.23 0,-580.23 0,-580.23 0,-614.46 25.66,-618.25 57,-632.03 109.64,-655.17 256.91,-664.15 361,-667.63"/>
<polygon fill="black" stroke="black" points="360.58,-671.12 370.69,-667.94 360.81,-664.12 360.58,-671.12"/>
</g>
<!-- Bekleme&#45;&gt;Menu -->
<g id="edge18" class="edge">
<title>Bekleme-&gt;Menu</title>
<path fill="none" stroke="black" d="M77.06,-145.48C58,-163.39 38,-188.96 38,-217.43 38,-580.23 38,-580.23 38,-580.23 38,-646.09 232.11,-663.93 360.7,-668.53"/>
<polygon fill="black" stroke="black" points="360.54,-672.03 370.65,-668.86 360.77,-665.03 360.54,-672.03"/>
</g>
<!-- KrediFail&#45;&gt;Menu -->
<g id="edge19" class="edge">
<title>KrediFail-&gt;Menu</title>
<path fill="none" stroke="black" d="M461.02,-35.97C478.37,-54.22 502,-84.99 502,-117.22 502,-580.23 502,-580.23 502,-580.23 502,-600.69 494.88,-622.47 487.58,-639.44"/>
<polygon fill="black" stroke="black" points="484.44,-637.9 483.46,-648.45 490.8,-640.81 484.44,-637.9"/>
</g>
<!-- SilOK -->
<g id="node13" class="node">
<title>SilOK</title>
<ellipse fill="none" stroke="black" cx="587" cy="-490.43" rx="57.44" ry="18"/>
<text xml:space="preserve" text-anchor="middle" x="587" y="-486.23" font-family="Times,serif" font-size="14.00">Ders Silindi</text>
</g>
<!-- Sil&#45;&gt;SilOK -->
<g id="edge20" class="edge">
<title>Sil-&gt;SilOK</title>
<path fill="none" stroke="black" d="M577.37,-561.08C578.99,-549.39 581.17,-533.62 583.04,-520.05"/>
<polygon fill="black" stroke="black" points="586.48,-520.73 584.39,-510.34 579.55,-519.77 586.48,-520.73"/>
</g>
<!-- BekleyenYukselt -->
<g id="node14" class="node">
<title>BekleyenYukselt</title>
<path fill="none" stroke="black" d="M690.29,-419.63C690.29,-419.63 579.71,-419.63 579.71,-419.63 573.71,-419.63 567.71,-413.63 567.71,-407.63 567.71,-407.63 567.71,-390.03 567.71,-390.03 567.71,-384.03 573.71,-378.03 579.71,-378.03 579.71,-378.03 690.29,-378.03 690.29,-378.03 696.29,-378.03 702.29,-384.03 702.29,-390.03 702.29,-390.03 702.29,-407.63 702.29,-407.63 702.29,-413.63 696.29,-419.63 690.29,-419.63"/>
<text xml:space="preserve" text-anchor="middle" x="635" y="-403.03" font-family="Times,serif" font-size="14.00">Bekleyenleri Yükselt</text>
<text xml:space="preserve" text-anchor="middle" x="635" y="-386.23" font-family="Times,serif" font-size="14.00">(öncelik + kontrol)</text>
</g>
<!-- SilOK&#45;&gt;BekleyenYukselt -->
<g id="edge21" class="edge">
<title>SilOK-&gt;BekleyenYukselt</title>
<path fill="none" stroke="black" d="M596.03,-472.58C602.45,-460.59 611.26,-444.14 618.88,-429.92"/>
<polygon fill="black" stroke="black" points="621.81,-431.86 623.45,-421.39 615.64,-428.56 621.81,-431.86"/>
</g>
<!-- BekleyenYukselt&#45;&gt;Menu -->
<g id="edge22" class="edge">
<title>BekleyenYukselt-&gt;Menu</title>
<path fill="none" stroke="black" d="M641.38,-419.93C645.62,-434.36 650.8,-454.39 653,-472.43 659.89,-528.86 661.15,-553.36 625,-597.23 607.25,-618.77 581.63,-634.32 556.42,-645.36"/>
<polygon fill="black" stroke="black" points="555.33,-642.02 547.44,-649.09 558.01,-648.48 555.33,-642.02"/>
</g>
<!-- Goster -->
<g id="node16" class="node">
<title>Goster</title>
<ellipse fill="none" stroke="black" cx="817" cy="-490.43" rx="117.48" ry="18"/>
<text xml:space="preserve" text-anchor="middle" x="817" y="-486.23" font-family="Times,serif" font-size="14.00">Mevcut Dersler ve Krediler</text>
</g>
<!-- Liste&#45;&gt;Goster -->
<g id="edge23" class="edge">
<title>Liste-&gt;Goster</title>
<path fill="none" stroke="black" d="M762.43,-561.08C772.21,-548.6 785.63,-531.48 796.71,-517.33"/>
<polygon fill="black" stroke="black" points="799.25,-519.77 802.66,-509.74 793.74,-515.45 799.25,-519.77"/>
</g>
<!-- Goster&#45;&gt;Menu -->
<g id="edge24" class="edge">
<title>Goster-&gt;Menu</title>
<path fill="none" stroke="black" d="M819.6,-508.89C822,-531.04 823.09,-569.67 807,-597.23 793.35,-620.61 782.24,-622.24 757,-632.03 702.04,-653.34 637.14,-663.04 583.16,-667.3"/>
<polygon fill="black" stroke="black" points="583.04,-663.8 573.32,-668.01 583.55,-670.78 583.04,-663.8"/>
</g>
<!-- Odeme -->
<g id="node18" class="node">
<title>Odeme</title>
<path fill="none" stroke="black" d="M1061.13,-506.66C1061.13,-506.66 964.6,-492.21 964.6,-492.21 958.66,-491.32 958.66,-489.54 964.6,-488.66 964.6,-488.66 1061.13,-474.21 1061.13,-474.21 1067.07,-473.32 1078.93,-473.32 1084.87,-474.21 1084.87,-474.21 1181.4,-488.66 1181.4,-488.66 1187.34,-489.54 1187.34,-491.32 1181.4,-492.21 1181.4,-492.21 1084.87,-506.66 1084.87,-506.66 1078.93,-507.54 1067.07,-507.54 1061.13,-506.66"/>
<text xml:space="preserve" text-anchor="middle" x="1073" y="-486.23" font-family="Times,serif" font-size="14.00">Ödeme Gerekli mi?</text>
</g>
<!-- Bitir&#45;&gt;Odeme -->
<g id="edge25" class="edge">
<title>Bitir-&gt;Odeme</title>
<path fill="none" stroke="black" d="M996.77,-561.08C1011.55,-547.58 1032.28,-528.64 1048.39,-513.92"/>
<polygon fill="black" stroke="black" points="1050.66,-516.58 1055.68,-507.25 1045.94,-511.41 1050.66,-516.58"/>
</g>
<!-- OdemeOK -->
<g id="node19" class="node">
<title>OdemeOK</title>
<ellipse fill="none" stroke="black" cx="1160" cy="-398.83" rx="74.59" ry="18"/>
<text xml:space="preserve" text-anchor="middle" x="1160" y="-394.63" font-family="Times,serif" font-size="14.00">Ödeme Başarılı</text>
</g>
<!-- Odeme&#45;&gt;OdemeOK -->
<g id="edge26" class="edge">
<title>Odeme-&gt;OdemeOK</title>
<path fill="none" stroke="black" d="M1087.76,-474.23C1100.97,-460.63 1120.58,-440.43 1136.04,-424.51"/>
<polygon fill="black" stroke="black" points="1138.18,-427.33 1142.63,-417.72 1133.16,-422.45 1138.18,-427.33"/>
<text xml:space="preserve" text-anchor="middle" x="1139.59" y="-441.83" font-family="Times,serif" font-size="14.00">EVET</text>
</g>
<!-- OdemeFail -->
<g id="node20" class="node">
<title>OdemeFail</title>
<ellipse fill="none" stroke="black" cx="987" cy="-398.83" rx="79.95" ry="18"/>
<text xml:space="preserve" text-anchor="middle" x="987" y="-394.63" font-family="Times,serif" font-size="14.00">Ödeme Başarısız</text>
</g>
<!-- Odeme&#45;&gt;OdemeFail -->
<g id="edge27" class="edge">
<title>Odeme-&gt;OdemeFail</title>
<path fill="none" stroke="black" d="M1058.41,-474.23C1045.35,-460.63 1025.97,-440.43 1010.69,-424.51"/>
<polygon fill="black" stroke="black" points="1013.62,-422.51 1004.17,-417.72 1008.57,-427.36 1013.62,-422.51"/>
<text xml:space="preserve" text-anchor="middle" x="1059.87" y="-441.83" font-family="Times,serif" font-size="14.00">HAYIR</text>
</g>
<!-- End -->
<g id="node21" class="node">
<title>End</title>
<ellipse fill="none" stroke="black" cx="1074" cy="-307.23" rx="115.08" ry="18"/>
<text xml:space="preserve" text-anchor="middle" x="1074" y="-303.03" font-family="Times,serif" font-size="14.00">Kayıt Süreci Tamamlandı</text>
</g>
<!-- OdemeOK&#45;&gt;End -->
<g id="edge28" class="edge">
<title>OdemeOK-&gt;End</title>
<path fill="none" stroke="black" d="M1143.82,-380.98C1130.93,-367.55 1112.69,-348.54 1098.08,-333.32"/>
<polygon fill="black" stroke="black" points="1100.89,-331.2 1091.44,-326.41 1095.84,-336.04 1100.89,-331.2"/>
</g>
<!-- OdemeFail&#45;&gt;End -->
<g id="edge29" class="edge">
<title>OdemeFail-&gt;End</title>
<path fill="none" stroke="black" d="M1003.36,-380.98C1016.4,-367.55 1034.86,-348.54 1049.64,-333.32"/>
<polygon fill="black" stroke="black" points="1051.9,-336.01 1056.36,-326.4 1046.88,-331.14 1051.9,-336.01"/>
</g>
</g>
</svg>